<?xml version="1.0" encoding="UTF-8"?>
<!DOCTYPE svg PUBLIC "-//W3C//DTD SVG 1.1//EN" "http://www.w3.org/Graphics/SVG/1.1/DTD/svg11.dtd">
<svg xmlns="http://www.w3.org/2000/svg" version="1.1" width="128px" height="128px" style="shape-rendering:geometricPrecision; text-rendering:geometricPrecision; image-rendering:optimizeQuality; fill-rule:evenodd; clip-rule:evenodd" xmlns:xlink="http://www.w3.org/1999/xlink">
<g><path style="opacity:1" fill="#fefffe" d="M -0.5,-0.5 C 3.5,-0.5 7.5,-0.5 11.5,-0.5C 11.5,0.833333 11.5,2.16667 11.5,3.5C 8.83333,3.5 6.16667,3.5 3.5,3.5C 3.5,6.16667 3.5,8.83333 3.5,11.5C 2.16667,11.5 0.833333,11.5 -0.5,11.5C -0.5,7.5 -0.5,3.5 -0.5,-0.5 Z"/></g>
<g><path style="opacity:1" fill="#f3b6c4" d="M 11.5,-0.5 C 46.1667,-0.5 80.8333,-0.5 115.5,-0.5C 115.5,0.833333 115.5,2.16667 115.5,3.5C 118.167,3.5 120.833,3.5 123.5,3.5C 123.5,6.16667 123.5,8.83333 123.5,11.5C 124.833,11.5 126.167,11.5 127.5,11.5C 127.5,46.1667 127.5,80.8333 127.5,115.5C 126.167,115.5 124.833,115.5 123.5,115.5C 123.5,118.167 123.5,120.833 123.5,123.5C 120.833,123.5 118.167,123.5 115.5,123.5C 115.5,124.833 115.5,126.167 115.5,127.5C 80.8333,127.5 46.1667,127.5 11.5,127.5C 11.5,126.167 11.5,124.833 11.5,123.5C 8.83333,123.5 6.16667,123.5 3.5,123.5C 3.5,120.833 3.5,118.167 3.5,115.5C 2.16667,115.5 0.833333,115.5 -0.5,115.5C -0.5,80.8333 -0.5,46.1667 -0.5,11.5C 0.833333,11.5 2.16667,11.5 3.5,11.5C 3.5,8.83333 3.5,6.16667 3.5,3.5C 6.16667,3.5 8.83333,3.5 11.5,3.5C 11.5,2.16667 11.5,0.833333 11.5,-0.5 Z"/></g>
<g><path style="opacity:1" fill="#fefffe" d="M 115.5,-0.5 C 119.5,-0.5 123.5,-0.5 127.5,-0.5C 127.5,3.5 127.5,7.5 127.5,11.5C 126.167,11.5 124.833,11.5 123.5,11.5C 123.5,8.83333 123.5,6.16667 123.5,3.5C 120.833,3.5 118.167,3.5 115.5,3.5C 115.5,2.16667 115.5,0.833333 115.5,-0.5 Z"/></g>
<g><path style="opacity:1" fill="#fefffe" d="M 11.5,7.5 C 46.1667,7.5 80.8333,7.5 115.5,7.5C 115.5,8.83333 115.5,10.1667 115.5,11.5C 116.833,11.5 118.167,11.5 119.5,11.5C 119.5,46.1667 119.5,80.8333 119.5,115.5C 118.167,115.5 116.833,115.5 115.5,115.5C 115.5,116.833 115.5,118.167 115.5,119.5C 80.8333,119.5 46.1667,119.5 11.5,119.5C 11.5,118.167 11.5,116.833 11.5,115.5C 10.1667,115.5 8.83333,115.5 7.5,115.5C 7.5,80.8333 7.5,46.1667 7.5,11.5C 8.83333,11.5 10.1667,11.5 11.5,11.5C 11.5,10.1667 11.5,8.83333 11.5,7.5 Z"/></g>
<g><path style="opacity:1" fill="#f3b6c4" d="M 19.5,19.5 C 19.5,18.1667 19.5,16.8333 19.5,15.5C 26.1667,15.5 32.8333,15.5 39.5,15.5C 39.5,23.5 39.5,31.5 39.5,39.5C 31.5,39.5 23.5,39.5 15.5,39.5C 15.5,32.8333 15.5,26.1667 15.5,19.5C 16.8333,19.5 18.1667,19.5 19.5,19.5 Z"/></g>
<g><path style="opacity:1" fill="#f3b6c4" d="M 43.5,15.5 C 44.8333,15.5 46.1667,15.5 47.5,15.5C 47.5,23.5 47.5,31.5 47.5,39.5C 46.1667,39.5 44.8333,39.5 43.5,39.5C 43.5,31.5 43.5,23.5 43.5,15.5 Z"/></g>
<g><path style="opacity:1" fill="#db6780" d="M 51.5,15.5 C 59.5,15.5 67.5,15.5 75.5,15.5C 75.5,23.5 75.5,31.5 75.5,39.5C 67.5,39.5 59.5,39.5 51.5,39.5C 51.5,31.5 51.5,23.5 51.5,15.5 Z"/></g>
<g><path style="opacity:1" fill="#f3b6c4" d="M 79.5,15.5 C 80.8333,15.5 82.1667,15.5 83.5,15.5C 83.5,23.5 83.5,31.5 83.5,39.5C 82.1667,39.5 80.8333,39.5 79.5,39.5C 79.5,31.5 79.5,23.5 79.5,15.5 Z"/></g>
<g><path style="opacity:1" fill="#db6780" d="M 87.5,15.5 C 94.1667,15.5 100.833,15.5 107.5,15.5C 107.5,16.8333 107.5,18.1667 107.5,19.5C 108.833,19.5 110.167,19.5 111.5,19.5C 111.5,26.1667 111.5,32.8333 111.5,39.5C 103.5,39.5 95.5,39.5 87.5,39.5C 87.5,31.5 87.5,23.5 87.5,15.5 Z"/></g>
<g><path style="opacity:1" fill="#fefffe" d="M 19.5,19.5 C 24.8333,19.5 30.1667,19.5 35.5,19.5C 35.5,24.8333 35.5,30.1667 35.5,35.5C 30.1667,35.5 24.8333,35.5 19.5,35.5C 19.5,30.1667 19.5,24.8333 19.5,19.5 Z"/></g>
<g><path style="opacity:1" fill="#f3b6c4" d="M 15.5,43.5 C 23.5,43.5 31.5,43.5 39.5,43.5C 39.5,44.8333 39.5,46.1667 39.5,47.5C 31.5,47.5 23.5,47.5 15.5,47.5C 15.5,46.1667 15.5,44.8333 15.5,43.5 Z"/></g>
<g><path style="opacity:1" fill="#f3b6c4" d="M 51.5,43.5 C 59.5,43.5 67.5,43.5 75.5,43.5C 75.5,44.8333 75.5,46.1667 75.5,47.5C 67.5,47.5 59.5,47.5 51.5,47.5C 51.5,46.1667 51.5,44.8333 51.5,43.5 Z"/></g>
<g><path style="opacity:1" fill="#f3b6c4" d="M 87.5,43.5 C 95.5,43.5 103.5,43.5 111.5,43.5C 111.5,44.8333 111.5,46.1667 111.5,47.5C 103.5,47.5 95.5,47.5 87.5,47.5C 87.5,46.1667 87.5,44.8333 87.5,43.5 Z"/></g>
<g><path style="opacity:1" fill="#db6780" d="M 15.5,51.5 C 23.5,51.5 31.5,51.5 39.5,51.5C 39.5,59.5 39.5,67.5 39.5,75.5C 31.5,75.5 23.5,75.5 15.5,75.5C 15.5,67.5 15.5,59.5 15.5,51.5 Z"/></g>
<g><path style="opacity:1" fill="#f3b6c4" d="M 43.5,51.5 C 44.8333,51.5 46.1667,51.5 47.5,51.5C 47.5,59.5 47.5,67.5 47.5,75.5C 46.1667,75.5 44.8333,75.5 43.5,75.5C 43.5,67.5 43.5,59.5 43.5,51.5 Z"/></g>
<g><path style="opacity:1" fill="#db6780" d="M 51.5,51.5 C 59.5,51.5 67.5,51.5 75.5,51.5C 75.5,59.5 75.5,67.5 75.5,75.5C 67.5,75.5 59.5,75.5 51.5,75.5C 51.5,67.5 51.5,59.5 51.5,51.5 Z"/></g>
<g><path style="opacity:1" fill="#f3b6c4" d="M 79.5,51.5 C 80.8333,51.5 82.1667,51.5 83.5,51.5C 83.5,59.5 83.5,67.5 83.5,75.5C 82.1667,75.5 80.8333,75.5 79.5,75.5C 79.5,67.5 79.5,59.5 79.5,51.5 Z"/></g>
<g><path style="opacity:1" fill="#f3b6c4" d="M 87.5,51.5 C 95.5,51.5 103.5,51.5 111.5,51.5C 111.5,59.5 111.5,67.5 111.5,75.5C 103.5,75.5 95.5,75.5 87.5,75.5C 87.5,67.5 87.5,59.5 87.5,51.5 Z"/></g>
<g><path style="opacity:1" fill="#fefffe" d="M 91.5,55.5 C 96.8333,55.5 102.167,55.5 107.5,55.5C 107.5,60.8333 107.5,66.1667 107.5,71.5C 102.167,71.5 96.8333,71.5 91.5,71.5C 91.5,66.1667 91.5,60.8333 91.5,55.5 Z"/></g>
<g><path style="opacity:1" fill="#f3b6c4" d="M 15.5,79.5 C 23.5,79.5 31.5,79.5 39.5,79.5C 39.5,80.8333 39.5,82.1667 39.5,83.5C 31.5,83.5 23.5,83.5 15.5,83.5C 15.5,82.1667 15.5,80.8333 15.5,79.5 Z"/></g>
<g><path style="opacity:1" fill="#f3b6c4" d="M 51.5,79.5 C 59.5,79.5 67.5,79.5 75.5,79.5C 75.5,80.8333 75.5,82.1667 75.5,83.5C 67.5,83.5 59.5,83.5 51.5,83.5C 51.5,82.1667 51.5,80.8333 51.5,79.5 Z"/></g>
<g><path style="opacity:1" fill="#f3b6c4" d="M 87.5,79.5 C 95.5,79.5 103.5,79.5 111.5,79.5C 111.5,80.8333 111.5,82.1667 111.5,83.5C 103.5,83.5 95.5,83.5 87.5,83.5C 87.5,82.1667 87.5,80.8333 87.5,79.5 Z"/></g>
<g><path style="opacity:1" fill="#f3b6c4" d="M 19.5,107.5 C 18.1667,107.5 16.8333,107.5 15.5,107.5C 15.5,100.833 15.5,94.1667 15.5,87.5C 23.5,87.5 31.5,87.5 39.5,87.5C 39.5,95.5 39.5,103.5 39.5,111.5C 32.8333,111.5 26.1667,111.5 19.5,111.5C 19.5,110.167 19.5,108.833 19.5,107.5 Z"/></g>
<g><path style="opacity:1" fill="#f3b6c4" d="M 43.5,87.5 C 44.8333,87.5 46.1667,87.5 47.5,87.5C 47.5,95.5 47.5,103.5 47.5,111.5C 46.1667,111.5 44.8333,111.5 43.5,111.5C 43.5,103.5 43.5,95.5 43.5,87.5 Z"/></g>
<g><path style="opacity:1" fill="#db6780" d="M 51.5,87.5 C 59.5,87.5 67.5,87.5 75.5,87.5C 75.5,95.5 75.5,103.5 75.5,111.5C 67.5,111.5 59.5,111.5 51.5,111.5C 51.5,103.5 51.5,95.5 51.5,87.5 Z"/></g>
<g><path style="opacity:1" fill="#f3b6c4" d="M 79.5,87.5 C 80.8333,87.5 82.1667,87.5 83.5,87.5C 83.5,95.5 83.5,103.5 83.5,111.5C 82.1667,111.5 80.8333,111.5 79.5,111.5C 79.5,103.5 79.5,95.5 79.5,87.5 Z"/></g>
<g><path style="opacity:1" fill="#f3b6c4" d="M 107.5,107.5 C 107.5,108.833 107.5,110.167 107.5,111.5C 100.833,111.5 94.1667,111.5 87.5,111.5C 87.5,103.5 87.5,95.5 87.5,87.5C 95.5,87.5 103.5,87.5 111.5,87.5C 111.5,94.1667 111.5,100.833 111.5,107.5C 110.167,107.5 108.833,107.5 107.5,107.5 Z"/></g>
<g><path style="opacity:1" fill="#fefffe" d="M 19.5,107.5 C 19.5,102.167 19.5,96.8333 19.5,91.5C 24.8333,91.5 30.1667,91.5 35.5,91.5C 35.5,96.8333 35.5,102.167 35.5,107.5C 30.1667,107.5 24.8333,107.5 19.5,107.5 Z"/></g>
<g><path style="opacity:1" fill="#fefffe" d="M 107.5,107.5 C 102.167,107.5 96.8333,107.5 91.5,107.5C 91.5,102.167 91.5,96.8333 91.5,91.5C 96.8333,91.5 102.167,91.5 107.5,91.5C 107.5,96.8333 107.5,102.167 107.5,107.5 Z"/></g>
<g><path style="opacity:1" fill="#fefffe" d="M -0.5,115.5 C 0.833333,115.5 2.16667,115.5 3.5,115.5C 3.5,118.167 3.5,120.833 3.5,123.5C 6.16667,123.5 8.83333,123.5 11.5,123.5C 11.5,124.833 11.5,126.167 11.5,127.5C 7.5,127.5 3.5,127.5 -0.5,127.5C -0.5,123.5 -0.5,119.5 -0.5,115.5 Z"/></g>
<g><path style="opacity:1" fill="#fefffe" d="M 127.5,115.5 C 127.5,119.5 127.5,123.5 127.5,127.5C 123.5,127.5 119.5,127.5 115.5,127.5C 115.5,126.167 115.5,124.833 115.5,123.5C 118.167,123.5 120.833,123.5 123.5,123.5C 123.5,120.833 123.5,118.167 123.5,115.5C 124.833,115.5 126.167,115.5 127.5,115.5 Z"/></g>
</svg>
