<?xml version="1.0" encoding="UTF-8"?>
<!DOCTYPE svg PUBLIC "-//W3C//DTD SVG 1.1//EN" "http://www.w3.org/Graphics/SVG/1.1/DTD/svg11.dtd">
<svg xmlns="http://www.w3.org/2000/svg" version="1.1" width="32px" height="32px" style="shape-rendering:geometricPrecision; text-rendering:geometricPrecision; image-rendering:optimizeQuality; fill-rule:evenodd; clip-rule:evenodd" xmlns:xlink="http://www.w3.org/1999/xlink">
<g><path style="opacity:1" fill="#fefffe" d="M -0.5,-0.5 C 0.5,-0.5 1.5,-0.5 2.5,-0.5C 1.5,0.5 0.5,1.5 -0.5,2.5C -0.5,1.5 -0.5,0.5 -0.5,-0.5 Z"/></g>
<g><path style="opacity:1" fill="#f3b6c4" d="M 2.5,-0.5 C 11.1667,-0.5 19.8333,-0.5 28.5,-0.5C 29.5,0.5 30.5,1.5 31.5,2.5C 31.5,11.1667 31.5,19.8333 31.5,28.5C 30.5,29.5 29.5,30.5 28.5,31.5C 19.8333,31.5 11.1667,31.5 2.5,31.5C 1.5,30.5 0.5,29.5 -0.5,28.5C -0.5,19.8333 -0.5,11.1667 -0.5,2.5C 0.5,1.5 1.5,0.5 2.5,-0.5 Z"/></g>
<g><path style="opacity:1" fill="#fefffe" d="M 28.5,-0.5 C 29.5,-0.5 30.5,-0.5 31.5,-0.5C 31.5,0.5 31.5,1.5 31.5,2.5C 30.5,1.5 29.5,0.5 28.5,-0.5 Z"/></g>
<g><path style="opacity:1" fill="#fdf3f5" d="M 2.5,1.5 C 11.4178,1.18277 20.2511,1.5161 29,2.5C 29.8163,11.4117 29.6497,20.245 28.5,29C 19.5883,29.8163 10.755,29.6497 2,28.5C 1.19648,19.4221 1.36315,10.4221 2.5,1.5 Z"/></g>
<g><path style="opacity:1" fill="#f3b6c4" d="M 4.5,4.5 C 5.91866,3.54885 7.58533,3.21552 9.5,3.5C 9.5,5.5 9.5,7.5 9.5,9.5C 7.5,9.5 5.5,9.5 3.5,9.5C 3.21552,7.58533 3.54885,5.91866 4.5,4.5 Z"/></g>
<g><path style="opacity:1" fill="#db6780" d="M 12.5,3.5 C 14.5,3.5 16.5,3.5 18.5,3.5C 18.5,5.5 18.5,7.5 18.5,9.5C 16.5,9.5 14.5,9.5 12.5,9.5C 12.5,7.5 12.5,5.5 12.5,3.5 Z"/></g>
<g><path style="opacity:1" fill="#db6780" d="M 21.5,3.5 C 26.5,2.5 28.5,4.5 27.5,9.5C 25.5,9.5 23.5,9.5 21.5,9.5C 21.5,7.5 21.5,5.5 21.5,3.5 Z"/></g>
<g><path style="opacity:1" fill="#fefffe" d="M 4.5,4.5 C 5.83333,4.5 7.16667,4.5 8.5,4.5C 8.5,5.83333 8.5,7.16667 8.5,8.5C 7.16667,8.5 5.83333,8.5 4.5,8.5C 4.5,7.16667 4.5,5.83333 4.5,4.5 Z"/></g>
<g><path style="opacity:1" fill="#db6780" d="M 3.5,12.5 C 5.5,12.5 7.5,12.5 9.5,12.5C 9.5,14.5 9.5,16.5 9.5,18.5C 7.5,18.5 5.5,18.5 3.5,18.5C 3.5,16.5 3.5,14.5 3.5,12.5 Z"/></g>
<g><path style="opacity:1" fill="#db6780" d="M 12.5,12.5 C 14.5,12.5 16.5,12.5 18.5,12.5C 18.5,14.5 18.5,16.5 18.5,18.5C 16.5,18.5 14.5,18.5 12.5,18.5C 12.5,16.5 12.5,14.5 12.5,12.5 Z"/></g>
<g><path style="opacity:1" fill="#f3b6c4" d="M 21.5,12.5 C 23.5,12.5 25.5,12.5 27.5,12.5C 27.5,14.5 27.5,16.5 27.5,18.5C 25.5,18.5 23.5,18.5 21.5,18.5C 21.5,16.5 21.5,14.5 21.5,12.5 Z"/></g>
<g><path style="opacity:1" fill="#fefffe" d="M 22.5,13.5 C 23.8333,13.5 25.1667,13.5 26.5,13.5C 26.5,14.8333 26.5,16.1667 26.5,17.5C 25.1667,17.5 23.8333,17.5 22.5,17.5C 22.5,16.1667 22.5,14.8333 22.5,13.5 Z"/></g>
<g><path style="opacity:1" fill="#f3b6c4" d="M 4.5,26.5 C 3.54885,25.0813 3.21552,23.4147 3.5,21.5C 5.5,21.5 7.5,21.5 9.5,21.5C 9.5,23.5 9.5,25.5 9.5,27.5C 7.58533,27.7845 5.91866,27.4511 4.5,26.5 Z"/></g>
<g><path style="opacity:1" fill="#db6780" d="M 12.5,21.5 C 14.5,21.5 16.5,21.5 18.5,21.5C 18.5,23.5 18.5,25.5 18.5,27.5C 16.5,27.5 14.5,27.5 12.5,27.5C 12.5,25.5 12.5,23.5 12.5,21.5 Z"/></g>
<g><path style="opacity:1" fill="#f3b6c4" d="M 26.5,26.5 C 25.0813,27.4511 23.4147,27.7845 21.5,27.5C 21.5,25.5 21.5,23.5 21.5,21.5C 23.5,21.5 25.5,21.5 27.5,21.5C 27.7845,23.4147 27.4511,25.0813 26.5,26.5 Z"/></g>
<g><path style="opacity:1" fill="#fefffe" d="M 4.5,26.5 C 4.5,25.1667 4.5,23.8333 4.5,22.5C 5.83333,22.5 7.16667,22.5 8.5,22.5C 8.5,23.8333 8.5,25.1667 8.5,26.5C 7.16667,26.5 5.83333,26.5 4.5,26.5 Z"/></g>
<g><path style="opacity:1" fill="#fefffe" d="M 26.5,26.5 C 25.1667,26.5 23.8333,26.5 22.5,26.5C 22.5,25.1667 22.5,23.8333 22.5,22.5C 23.8333,22.5 25.1667,22.5 26.5,22.5C 26.5,23.8333 26.5,25.1667 26.5,26.5 Z"/></g>
<g><path style="opacity:1" fill="#fefffe" d="M -0.5,28.5 C 0.5,29.5 1.5,30.5 2.5,31.5C 1.5,31.5 0.5,31.5 -0.5,31.5C -0.5,30.5 -0.5,29.5 -0.5,28.5 Z"/></g>
<g><path style="opacity:1" fill="#fefffe" d="M 31.5,28.5 C 31.5,29.5 31.5,30.5 31.5,31.5C 30.5,31.5 29.5,31.5 28.5,31.5C 29.5,30.5 30.5,29.5 31.5,28.5 Z"/></g>
</svg>
